<mxfile host="app.diagrams.net" modified="2021-07-20T06:25:18.955Z" agent="5.0 (Windows NT 10.0; Win64; x64) AppleWebKit/537.36 (KHTML, like Gecko) Chrome/91.0.4472.124 Safari/537.36" etag="O445hV6zr_vT93qyibGn" version="14.9.0" type="github">
  <diagram id="zFXh8JdTHzCjzX65N2CW" name="Page-1">
    <mxGraphModel dx="1038" dy="579" grid="1" gridSize="10" guides="1" tooltips="1" connect="1" arrows="1" fold="1" page="1" pageScale="1" pageWidth="850" pageHeight="1100" math="0" shadow="0">
      <root>
        <mxCell id="0" />
        <mxCell id="1" parent="0" />
        <mxCell id="mHdN_rhec2u1ud0ZtcWm-1" value="ATM" style="shape=umlFrame;whiteSpace=wrap;html=1;" vertex="1" parent="1">
          <mxGeometry x="210" y="110" width="460" height="390" as="geometry" />
        </mxCell>
        <mxCell id="mHdN_rhec2u1ud0ZtcWm-10" value="" style="edgeStyle=orthogonalEdgeStyle;rounded=0;orthogonalLoop=1;jettySize=auto;html=1;" edge="1" parent="1" source="mHdN_rhec2u1ud0ZtcWm-2" target="mHdN_rhec2u1ud0ZtcWm-9">
          <mxGeometry relative="1" as="geometry" />
        </mxCell>
        <mxCell id="mHdN_rhec2u1ud0ZtcWm-12" value="" style="edgeStyle=orthogonalEdgeStyle;rounded=0;orthogonalLoop=1;jettySize=auto;html=1;" edge="1" parent="1" source="mHdN_rhec2u1ud0ZtcWm-2" target="mHdN_rhec2u1ud0ZtcWm-11">
          <mxGeometry relative="1" as="geometry" />
        </mxCell>
        <mxCell id="mHdN_rhec2u1ud0ZtcWm-14" value="" style="edgeStyle=orthogonalEdgeStyle;rounded=0;orthogonalLoop=1;jettySize=auto;html=1;" edge="1" parent="1" source="mHdN_rhec2u1ud0ZtcWm-2" target="mHdN_rhec2u1ud0ZtcWm-13">
          <mxGeometry relative="1" as="geometry">
            <Array as="points">
              <mxPoint x="240" y="190" />
              <mxPoint x="240" y="310" />
            </Array>
          </mxGeometry>
        </mxCell>
        <mxCell id="mHdN_rhec2u1ud0ZtcWm-2" value="Customer" style="shape=umlActor;verticalLabelPosition=bottom;verticalAlign=top;html=1;" vertex="1" parent="1">
          <mxGeometry x="100" y="160" width="30" height="60" as="geometry" />
        </mxCell>
        <mxCell id="mHdN_rhec2u1ud0ZtcWm-9" value="&lt;br&gt;Withdraw Cash" style="ellipse;whiteSpace=wrap;html=1;verticalAlign=top;" vertex="1" parent="1">
          <mxGeometry x="350" y="130" width="120" height="60" as="geometry" />
        </mxCell>
        <mxCell id="mHdN_rhec2u1ud0ZtcWm-11" value="&lt;br&gt;Check balance" style="ellipse;whiteSpace=wrap;html=1;verticalAlign=top;" vertex="1" parent="1">
          <mxGeometry x="350" y="200" width="120" height="60" as="geometry" />
        </mxCell>
        <mxCell id="mHdN_rhec2u1ud0ZtcWm-13" value="&lt;br&gt;Transfer funds" style="ellipse;whiteSpace=wrap;html=1;verticalAlign=top;" vertex="1" parent="1">
          <mxGeometry x="350" y="270" width="120" height="60" as="geometry" />
        </mxCell>
        <mxCell id="mHdN_rhec2u1ud0ZtcWm-18" value="" style="edgeStyle=orthogonalEdgeStyle;rounded=0;orthogonalLoop=1;jettySize=auto;html=1;" edge="1" parent="1" source="mHdN_rhec2u1ud0ZtcWm-15" target="mHdN_rhec2u1ud0ZtcWm-17">
          <mxGeometry relative="1" as="geometry" />
        </mxCell>
        <mxCell id="mHdN_rhec2u1ud0ZtcWm-20" value="" style="edgeStyle=orthogonalEdgeStyle;rounded=0;orthogonalLoop=1;jettySize=auto;html=1;" edge="1" parent="1" source="mHdN_rhec2u1ud0ZtcWm-15" target="mHdN_rhec2u1ud0ZtcWm-19">
          <mxGeometry relative="1" as="geometry">
            <Array as="points">
              <mxPoint x="240" y="370" />
              <mxPoint x="240" y="440" />
            </Array>
          </mxGeometry>
        </mxCell>
        <mxCell id="mHdN_rhec2u1ud0ZtcWm-15" value="Technician" style="shape=umlActor;verticalLabelPosition=bottom;verticalAlign=top;html=1;" vertex="1" parent="1">
          <mxGeometry x="100" y="340" width="30" height="60" as="geometry" />
        </mxCell>
        <mxCell id="mHdN_rhec2u1ud0ZtcWm-17" value="&lt;br&gt;Repair" style="ellipse;whiteSpace=wrap;html=1;verticalAlign=top;" vertex="1" parent="1">
          <mxGeometry x="350" y="340" width="120" height="60" as="geometry" />
        </mxCell>
        <mxCell id="mHdN_rhec2u1ud0ZtcWm-19" value="&lt;br&gt;Maintain" style="ellipse;whiteSpace=wrap;html=1;verticalAlign=top;" vertex="1" parent="1">
          <mxGeometry x="350" y="410" width="120" height="60" as="geometry" />
        </mxCell>
        <mxCell id="mHdN_rhec2u1ud0ZtcWm-22" value="" style="edgeStyle=orthogonalEdgeStyle;rounded=0;orthogonalLoop=1;jettySize=auto;html=1;entryX=1;entryY=0.5;entryDx=0;entryDy=0;" edge="1" parent="1" source="mHdN_rhec2u1ud0ZtcWm-21" target="mHdN_rhec2u1ud0ZtcWm-9">
          <mxGeometry relative="1" as="geometry">
            <Array as="points">
              <mxPoint x="560" y="250" />
              <mxPoint x="560" y="160" />
            </Array>
          </mxGeometry>
        </mxCell>
        <mxCell id="mHdN_rhec2u1ud0ZtcWm-21" value="Bank" style="shape=umlActor;verticalLabelPosition=bottom;verticalAlign=top;html=1;" vertex="1" parent="1">
          <mxGeometry x="730" y="220" width="30" height="60" as="geometry" />
        </mxCell>
        <mxCell id="mHdN_rhec2u1ud0ZtcWm-28" value="name" style="endArrow=block;endFill=1;html=1;edgeStyle=orthogonalEdgeStyle;align=left;verticalAlign=top;entryX=1;entryY=0.5;entryDx=0;entryDy=0;" edge="1" parent="1" source="mHdN_rhec2u1ud0ZtcWm-21" target="mHdN_rhec2u1ud0ZtcWm-11">
          <mxGeometry x="-1" relative="1" as="geometry">
            <mxPoint x="340" y="300" as="sourcePoint" />
            <mxPoint x="500" y="300" as="targetPoint" />
          </mxGeometry>
        </mxCell>
        <mxCell id="mHdN_rhec2u1ud0ZtcWm-29" value="1" style="edgeLabel;resizable=0;html=1;align=left;verticalAlign=bottom;" connectable="0" vertex="1" parent="mHdN_rhec2u1ud0ZtcWm-28">
          <mxGeometry x="-1" relative="1" as="geometry" />
        </mxCell>
      </root>
    </mxGraphModel>
  </diagram>
</mxfile>
